<svg width="56" height="56" viewBox="0 0 56 56" fill="none" xmlns="http://www.w3.org/2000/svg">
<circle opacity="0.1" cx="28.0001" cy="28.0001" r="23.3333" fill="#1972E6"/>
<path d="M31.8889 46.8257C31.8889 49.1687 28.9722 54.2499 28 54.2499C27.0277 54.2499 24.1111 49.1687 24.1111 46.8257C24.1111 44.4826 25.8522 42.5833 28 42.5833C30.1477 42.5833 31.8889 44.4826 31.8889 46.8257Z" fill="white"/>
<path fill-rule="evenodd" clip-rule="evenodd" d="M28 42.5833C30.1477 42.5833 31.8889 44.4826 31.8889 46.8257C31.8889 49.1687 28.9722 54.2499 28 54.2499C27.0277 54.2499 24.1111 49.1687 24.1111 46.8257C24.1111 44.4826 25.8522 42.5833 28 42.5833ZM29.9444 46.8257C29.9444 47.0769 29.8504 47.584 29.5874 48.3185C29.3382 49.0142 28.9874 49.7772 28.6011 50.487C28.3982 50.8598 28.194 51.2024 28 51.5013C27.806 51.2024 27.6017 50.8598 27.3989 50.487C27.0126 49.7772 26.6617 49.0142 26.4126 48.3185C26.1495 47.584 26.0555 47.0769 26.0555 46.8257C26.0555 46.4175 26.1389 46.0554 26.2794 45.7461C26.7075 46.9616 27.6321 48.4166 28 48.4166C28.3678 48.4166 29.2925 46.9616 29.7205 45.7461C29.861 46.0554 29.9444 46.4175 29.9444 46.8257Z" fill="#040405"/>
<path d="M20.6783 12.7151C19.1445 15.2641 17.8152 18.3565 17.2355 21.93C16.5078 26.4149 17.2557 30.1419 18.402 32.988H37.598C38.7443 30.1419 39.4923 26.4149 38.7646 21.93C38.1848 18.3565 36.8556 15.2641 35.3218 12.7151H20.6783Z" fill="#068DFF"/>
<path d="M27.9533 4.42163C27.9533 4.42163 23.8439 7.3766 20.6316 12.7151H35.275C32.0627 7.3766 27.9533 4.42163 27.9533 4.42163Z" fill="white"/>
<path d="M22.5997 39.4385H33.3635C33.3635 39.4385 35.8989 37.1593 37.5788 32.988H18.3843C20.0642 37.1593 22.5997 39.4385 22.5997 39.4385Z" fill="white"/>
<path d="M14.1383 44.9674C6.69552 32.0664 16.9056 27.459 16.9056 27.459L18.79 35.7524C14.0789 38.5169 14.1383 44.9674 14.1383 44.9674Z" fill="white"/>
<path d="M41.8161 44.9674C49.2588 32.0664 39.053 27.459 39.053 27.459L37.2109 35.7524C41.9219 38.5169 41.8161 44.9674 41.8161 44.9674Z" fill="white"/>
<path d="M33.5267 22.8515C33.5267 25.9051 31.0525 28.3805 28.0004 28.3805C24.9484 28.3805 22.4742 25.9051 22.4742 22.8515C22.4742 19.7979 24.9484 17.3225 28.0004 17.3225C31.0525 17.3225 33.5267 19.7979 33.5267 22.8515Z" fill="white"/>
<path fill-rule="evenodd" clip-rule="evenodd" d="M28 26.5374C30.0347 26.5374 31.6842 24.8871 31.6842 22.8514C31.6842 20.8157 30.0347 19.1654 28 19.1654C25.9653 19.1654 24.3158 20.8157 24.3158 22.8514C24.3158 24.8871 25.9653 26.5374 28 26.5374ZM28 28.3804C31.0521 28.3804 33.5263 25.905 33.5263 22.8514C33.5263 19.7978 31.0521 17.3224 28 17.3224C24.9479 17.3224 22.4737 19.7978 22.4737 22.8514C22.4737 25.905 24.9479 28.3804 28 28.3804Z" fill="#040405"/>
<path fill-rule="evenodd" clip-rule="evenodd" d="M36.6959 36.7292C36.7495 36.6441 36.8616 36.6166 36.9466 36.6704C38.8868 37.8988 39.897 39.8747 40.4191 41.6559C40.687 42.5694 40.8181 43.4055 40.8818 44.0125C40.9136 44.3152 40.9284 44.5585 40.9353 44.7232C40.9557 45.2123 41.0776 45.7083 41.6197 45.8563C42.0235 45.9665 42.4507 45.7906 42.6599 45.428C46.5149 38.7459 45.8839 34.0105 44.0638 30.9087C43.1752 29.3943 42.0369 28.3291 41.1279 27.6443C40.672 27.3008 40.269 27.0494 39.9757 26.8818C39.9463 26.8651 39.929 26.8331 39.9311 26.7994C40.0289 25.2459 39.9639 23.5709 39.6737 21.7823C38.6501 15.4733 35.5834 10.3649 31.0554 5.90932C30.4243 5.2883 28.921 3.5 27.9534 3.5C26.9857 3.5 25.5154 5.25576 24.8513 5.90932C20.4931 10.1979 17.3123 15.7049 16.3263 21.7823C16.0361 23.5709 15.9711 25.2459 16.0689 26.7994C16.071 26.8331 16.0537 26.8651 16.0243 26.8818C15.731 27.0494 15.328 27.3008 14.8721 27.6443C13.9631 28.3291 12.8248 29.3943 11.9362 30.9087C10.1161 34.0105 9.48514 38.7459 13.3401 45.428C13.5493 45.7906 13.9766 45.9665 14.3803 45.8563C14.9294 45.7064 15.0442 45.2149 15.0647 44.7232C15.0716 44.5585 15.0864 44.3152 15.1182 44.0125C15.1819 43.4055 15.313 42.5694 15.5809 41.6559C16.1006 39.8829 17.1038 37.9171 19.0264 36.6876C19.1114 36.6333 19.2239 36.6605 19.2778 36.7458C19.6653 37.3593 20.0461 37.8921 20.3935 38.3412C20.8361 38.9136 21.2258 39.352 21.5085 39.6507C21.6499 39.8 21.7647 39.9146 21.8462 39.9937C22.058 40.1993 22.2899 40.3598 22.5997 40.3598H33.3635C33.6678 40.3598 33.9078 40.1967 34.117 39.9937C34.1985 39.9146 34.3132 39.8 34.4546 39.6507C34.7373 39.352 35.127 38.9136 35.5697 38.3412C35.9202 37.888 36.3047 37.3497 36.6959 36.7292ZM37.77 34.8127C37.727 34.8998 37.7584 35.0056 37.8411 35.0565C40.3676 36.613 41.5915 39.1065 42.1868 41.1372C42.2071 41.2066 42.2268 41.2756 42.2458 41.3442C42.2932 41.5155 42.5327 41.533 42.5979 41.3676C44.3604 36.8966 43.6439 33.8334 42.4753 31.8418C41.7142 30.5448 40.7163 29.629 39.9332 29.052C39.8243 28.9718 39.6709 29.0368 39.6472 29.17C39.3739 30.7078 38.9492 32.0986 38.4523 33.3323C38.4312 33.3847 38.4056 33.4344 38.3761 33.481C38.3698 33.491 38.3642 33.5015 38.3596 33.5124C38.1712 33.9682 37.9733 34.4018 37.77 34.8127ZM36.0297 34.1736C36.0914 34.0521 36.0024 33.9094 35.8662 33.9094H20.0969C19.9607 33.9094 19.8718 34.0521 19.9334 34.1736C20.5754 35.439 21.2666 36.4585 21.8504 37.2134C22.2516 37.7323 22.6008 38.1243 22.846 38.3834C22.872 38.4109 22.8968 38.4368 22.9204 38.4613C22.9548 38.4969 23.0023 38.5168 23.0518 38.5168H32.9113C32.9609 38.5168 33.0083 38.4969 33.0427 38.4613C33.0663 38.4368 33.0911 38.4109 33.1171 38.3834C33.3624 38.1243 33.7115 37.7323 34.1127 37.2134C34.6966 36.4585 35.3877 35.439 36.0297 34.1736ZM18.9908 31.9457C19.0169 32.0185 19.086 32.0664 19.1633 32.0664H36.8367C36.914 32.0664 36.9831 32.0185 37.0092 31.9457C37.9459 29.3317 38.4944 26.0156 37.8554 22.0776C37.3379 18.8878 36.1981 16.089 34.8485 13.7286C34.8158 13.6714 34.755 13.6365 34.6892 13.6365H21.3108C21.245 13.6365 21.1842 13.6714 21.1515 13.7286C19.8019 16.089 18.6621 18.8878 18.1446 22.0776C17.5056 26.0156 18.0541 29.3317 18.9908 31.9457ZM17.4735 33.1454C17.4776 33.156 17.4807 33.1669 17.4831 33.178C17.4941 33.2302 17.5097 33.2818 17.53 33.3323C17.7428 33.8608 17.9688 34.3603 18.2017 34.83C18.2447 34.9168 18.2136 35.0225 18.1313 35.0736C15.6235 36.6312 14.4064 39.1139 13.8132 41.1372C13.7929 41.2066 13.7732 41.2756 13.7542 41.3442C13.7068 41.5155 13.4673 41.533 13.4021 41.3676C11.6396 36.8966 12.3561 33.8334 13.5247 31.8418C14.2858 30.5448 15.2837 29.629 16.0668 29.052C16.1757 28.9718 16.3291 29.0368 16.3527 29.17C16.6124 30.6307 17.0086 31.9586 17.4735 33.1454ZM33.3691 11.5018C33.4609 11.6226 33.3732 11.7935 33.2215 11.7935H22.7119C22.5555 11.7935 22.4663 11.6116 22.5633 11.4889C23.7362 10.0069 27.0602 5.55177 27.9534 5.55177C28.7946 5.55177 32.4329 10.2693 33.3691 11.5018Z" fill="#040405"/>
<path d="M49.389 15.4999C49.389 17.1107 48.0832 18.4166 46.4723 18.4166C44.8615 18.4166 43.5557 17.1107 43.5557 15.4999C43.5557 13.8891 44.8615 12.5833 46.4723 12.5833C48.0832 12.5833 49.389 13.8891 49.389 15.4999Z" fill="white"/>
<path fill-rule="evenodd" clip-rule="evenodd" d="M46.4722 16.4721C47.0091 16.4721 47.4444 16.0368 47.4444 15.4999C47.4444 14.9629 47.0091 14.5277 46.4722 14.5277C45.9353 14.5277 45.5 14.9629 45.5 15.4999C45.5 16.0368 45.9353 16.4721 46.4722 16.4721ZM46.4722 18.4166C48.083 18.4166 49.3889 17.1107 49.3889 15.4999C49.3889 13.8891 48.083 12.5832 46.4722 12.5832C44.8614 12.5832 43.5555 13.8891 43.5555 15.4999C43.5555 17.1107 44.8614 18.4166 46.4722 18.4166Z" fill="#040405"/>
<path d="M10.5 20.361C10.5 21.4349 9.62942 22.3054 8.55553 22.3054C7.48164 22.3054 6.61108 21.4349 6.61108 20.361C6.61108 19.2871 7.48164 18.4166 8.55553 18.4166C9.62942 18.4166 10.5 19.2871 10.5 20.361Z" fill="#040405"/>
<path d="M43.5555 9.66656C43.5555 10.2035 43.1203 10.6388 42.5833 10.6388C42.0464 10.6388 41.6111 10.2035 41.6111 9.66656C41.6111 9.12961 42.0464 8.69434 42.5833 8.69434C43.1203 8.69434 43.5555 9.12961 43.5555 9.66656Z" fill="#040405"/>
</svg>
