<svg width="56" height="56" viewBox="0 0 56 56" fill="none" xmlns="http://www.w3.org/2000/svg">
<circle opacity="0.1" cx="28.0001" cy="28.0001" r="23.3333" fill="#1972E6"/>
<path d="M6.22217 15.5554C6.22217 13.8372 7.61506 12.4443 9.33328 12.4443H46.6666C48.3848 12.4443 49.7777 13.8372 49.7777 15.5554V37.3332C49.7777 39.0514 48.3848 40.4443 46.6666 40.4443H9.33328C7.61506 40.4443 6.22217 39.0514 6.22217 37.3332V15.5554Z" fill="#068DFF"/>
<path fill-rule="evenodd" clip-rule="evenodd" d="M46.6666 14.3888H9.33328C8.68895 14.3888 8.16661 14.9111 8.16661 15.5554V37.3332C8.16661 37.9776 8.68895 38.4999 9.33328 38.4999H46.6666C47.3109 38.4999 47.8333 37.9776 47.8333 37.3332V15.5554C47.8333 14.9111 47.3109 14.3888 46.6666 14.3888ZM9.33328 12.4443C7.61506 12.4443 6.22217 13.8372 6.22217 15.5554V37.3332C6.22217 39.0514 7.61506 40.4443 9.33328 40.4443H46.6666C48.3848 40.4443 49.7777 39.0514 49.7777 37.3332V15.5554C49.7777 13.8372 48.3848 12.4443 46.6666 12.4443H9.33328Z" fill="#040405"/>
<path fill-rule="evenodd" clip-rule="evenodd" d="M17.6944 43.5555C17.6944 43.0185 18.1297 42.5832 18.6666 42.5832H37.3333C37.8702 42.5832 38.3055 43.0185 38.3055 43.5555C38.3055 44.0924 37.8702 44.5277 37.3333 44.5277H18.6666C18.1297 44.5277 17.6944 44.0924 17.6944 43.5555Z" fill="#040405"/>
<path fill-rule="evenodd" clip-rule="evenodd" d="M16.1389 17.1111C16.1389 16.5742 16.5742 16.1389 17.1111 16.1389H20.2222C20.7592 16.1389 21.1945 16.5742 21.1945 17.1111C21.1945 17.6481 20.7592 18.0834 20.2222 18.0834H17.1111C16.5742 18.0834 16.1389 17.6481 16.1389 17.1111Z" fill="#040405"/>
<path fill-rule="evenodd" clip-rule="evenodd" d="M22.3611 17.1111C22.3611 16.5742 22.7964 16.1389 23.3334 16.1389H26.4445C26.9814 16.1389 27.4167 16.5742 27.4167 17.1111C27.4167 17.6481 26.9814 18.0834 26.4445 18.0834H23.3334C22.7964 18.0834 22.3611 17.6481 22.3611 17.1111Z" fill="#040405"/>
<path fill-rule="evenodd" clip-rule="evenodd" d="M28.5834 17.1111C28.5834 16.5742 29.0186 16.1389 29.5556 16.1389H32.6667C33.2036 16.1389 33.6389 16.5742 33.6389 17.1111C33.6389 17.6481 33.2036 18.0834 32.6667 18.0834H29.5556C29.0186 18.0834 28.5834 17.6481 28.5834 17.1111Z" fill="#040405"/>
<path fill-rule="evenodd" clip-rule="evenodd" d="M34.8056 17.1111C34.8056 16.5742 35.2409 16.1389 35.7778 16.1389H38.8889C39.4259 16.1389 39.8611 16.5742 39.8611 17.1111C39.8611 17.6481 39.4259 18.0834 38.8889 18.0834H35.7778C35.2409 18.0834 34.8056 17.6481 34.8056 17.1111Z" fill="#040405"/>
<g clip-path="url(#clip0_2084_189904)">
<path d="M10.8889 35.7779C10.8889 34.9188 11.5854 34.2224 12.4445 34.2224H19.7154C20.5745 34.2224 21.2709 34.9188 21.2709 35.7779V38.889C21.2709 39.7481 20.5745 40.4446 19.7154 40.4446H12.4445C11.5854 40.4446 10.8889 39.7481 10.8889 38.889V35.7779Z" fill="white"/>
<path d="M10.8889 43.5557C10.8889 42.6966 11.5854 42.0001 12.4445 42.0001H19.7154C20.5745 42.0001 21.2709 42.6966 21.2709 43.5557V46.6668C21.2709 47.5259 20.5745 48.2224 19.7154 48.2224H12.4445C11.5854 48.2224 10.8889 47.5259 10.8889 46.6668V43.5557Z" fill="white"/>
<path d="M10.8889 28.0001C10.8889 27.141 11.5854 26.4446 12.4445 26.4446H19.7154C20.5745 26.4446 21.2709 27.141 21.2709 28.0001V31.1112C21.2709 31.9704 20.5745 32.6668 19.7154 32.6668H12.4445C11.5854 32.6668 10.8889 31.9704 10.8889 31.1112V28.0001Z" fill="white"/>
<path d="M22.8089 35.7779C22.8089 34.9188 23.5053 34.2224 24.3644 34.2224H31.6354C32.4945 34.2224 33.1909 34.9188 33.1909 35.7779V38.889C33.1909 39.7481 32.4945 40.4446 31.6354 40.4446H24.3644C23.5053 40.4446 22.8089 39.7481 22.8089 38.889V35.7779Z" fill="white"/>
<path d="M22.8089 43.5557C22.8089 42.6966 23.5053 42.0001 24.3644 42.0001H31.6354C32.4945 42.0001 33.1909 42.6966 33.1909 43.5557V46.6668C33.1909 47.5259 32.4945 48.2224 31.6354 48.2224H24.3644C23.5053 48.2224 22.8089 47.5259 22.8089 46.6668V43.5557Z" fill="white"/>
<path d="M22.8089 28.0001C22.8089 27.141 23.5053 26.4446 24.3644 26.4446H31.6354C32.4945 26.4446 33.1909 27.141 33.1909 28.0001V31.1112C33.1909 31.9704 32.4945 32.6668 31.6354 32.6668H24.3644C23.5053 32.6668 22.8089 31.9704 22.8089 31.1112V28.0001Z" fill="white"/>
<path d="M34.7292 35.7779C34.7292 34.9188 35.4257 34.2224 36.2848 34.2224H43.5557C44.4148 34.2224 45.1113 34.9188 45.1113 35.7779V38.889C45.1113 39.7481 44.4148 40.4446 43.5557 40.4446H36.2848C35.4257 40.4446 34.7292 39.7481 34.7292 38.889V35.7779Z" fill="white"/>
<path d="M34.7292 43.5557C34.7292 42.6966 35.4257 42.0001 36.2848 42.0001H43.5557C44.4148 42.0001 45.1113 42.6966 45.1113 43.5557V46.6668C45.1113 47.5259 44.4148 48.2224 43.5557 48.2224H36.2848C35.4257 48.2224 34.7292 47.5259 34.7292 46.6668V43.5557Z" fill="white"/>
<path d="M34.7292 28.0001C34.7292 27.141 35.4257 26.4446 36.2848 26.4446H43.5557C44.4148 26.4446 45.1113 27.141 45.1113 28.0001V31.1112C45.1113 31.9704 44.4148 32.6668 43.5557 32.6668H36.2848C35.4257 32.6668 34.7292 31.9704 34.7292 31.1112V28.0001Z" fill="white"/>
<path fill-rule="evenodd" clip-rule="evenodd" d="M12.8334 36.1668V38.5001H19.3265V36.1668H12.8334ZM12.4445 34.2224C11.5854 34.2224 10.8889 34.9188 10.8889 35.7779V38.889C10.8889 39.7481 11.5854 40.4446 12.4445 40.4446H19.7154C20.5745 40.4446 21.2709 39.7481 21.2709 38.889V35.7779C21.2709 34.9188 20.5745 34.2224 19.7154 34.2224H12.4445Z" fill="#040405"/>
<path fill-rule="evenodd" clip-rule="evenodd" d="M12.8334 43.9446V46.2779H19.3265V43.9446H12.8334ZM12.4445 42.0001C11.5854 42.0001 10.8889 42.6966 10.8889 43.5557V46.6668C10.8889 47.5259 11.5854 48.2224 12.4445 48.2224H19.7154C20.5745 48.2224 21.2709 47.5259 21.2709 46.6668V43.5557C21.2709 42.6966 20.5745 42.0001 19.7154 42.0001H12.4445Z" fill="#040405"/>
<path fill-rule="evenodd" clip-rule="evenodd" d="M12.8334 28.389V30.7224H19.3265V28.389H12.8334ZM12.4445 26.4446C11.5854 26.4446 10.8889 27.141 10.8889 28.0001V31.1112C10.8889 31.9704 11.5854 32.6668 12.4445 32.6668H19.7154C20.5745 32.6668 21.2709 31.9704 21.2709 31.1112V28.0001C21.2709 27.141 20.5745 26.4446 19.7154 26.4446H12.4445Z" fill="#040405"/>
<path fill-rule="evenodd" clip-rule="evenodd" d="M24.7533 36.1668V38.5001H31.2465V36.1668H24.7533ZM24.3644 34.2224C23.5053 34.2224 22.8089 34.9188 22.8089 35.7779V38.889C22.8089 39.7481 23.5053 40.4446 24.3644 40.4446H31.6354C32.4945 40.4446 33.1909 39.7481 33.1909 38.889V35.7779C33.1909 34.9188 32.4945 34.2224 31.6354 34.2224H24.3644Z" fill="#040405"/>
<path fill-rule="evenodd" clip-rule="evenodd" d="M24.7533 43.9446V46.2779H31.2465V43.9446H24.7533ZM24.3644 42.0001C23.5053 42.0001 22.8089 42.6966 22.8089 43.5557V46.6668C22.8089 47.5259 23.5053 48.2224 24.3644 48.2224H31.6354C32.4945 48.2224 33.1909 47.5259 33.1909 46.6668V43.5557C33.1909 42.6966 32.4945 42.0001 31.6354 42.0001H24.3644Z" fill="#040405"/>
<path fill-rule="evenodd" clip-rule="evenodd" d="M24.7533 28.389V30.7224H31.2465V28.389H24.7533ZM24.3644 26.4446C23.5053 26.4446 22.8089 27.141 22.8089 28.0001V31.1112C22.8089 31.9704 23.5053 32.6668 24.3644 32.6668H31.6354C32.4945 32.6668 33.1909 31.9704 33.1909 31.1112V28.0001C33.1909 27.141 32.4945 26.4446 31.6354 26.4446H24.3644Z" fill="#040405"/>
<path fill-rule="evenodd" clip-rule="evenodd" d="M36.6737 36.1668V38.5001H43.1668V36.1668H36.6737ZM36.2848 34.2224C35.4257 34.2224 34.7292 34.9188 34.7292 35.7779V38.889C34.7292 39.7481 35.4257 40.4446 36.2848 40.4446H43.5557C44.4148 40.4446 45.1113 39.7481 45.1113 38.889V35.7779C45.1113 34.9188 44.4148 34.2224 43.5557 34.2224H36.2848Z" fill="#040405"/>
<path fill-rule="evenodd" clip-rule="evenodd" d="M36.6737 43.9446V46.2779H43.1668V43.9446H36.6737ZM36.2848 42.0001C35.4257 42.0001 34.7292 42.6966 34.7292 43.5557V46.6668C34.7292 47.5259 35.4257 48.2224 36.2848 48.2224H43.5557C44.4148 48.2224 45.1113 47.5259 45.1113 46.6668V43.5557C45.1113 42.6966 44.4148 42.0001 43.5557 42.0001H36.2848Z" fill="#040405"/>
<path fill-rule="evenodd" clip-rule="evenodd" d="M36.6737 28.389V30.7224H43.1668V28.389H36.6737ZM36.2848 26.4446C35.4257 26.4446 34.7292 27.141 34.7292 28.0001V31.1112C34.7292 31.9704 35.4257 32.6668 36.2848 32.6668H43.5557C44.4148 32.6668 45.1113 31.9704 45.1113 31.1112V28.0001C45.1113 27.141 44.4148 26.4446 43.5557 26.4446H36.2848Z" fill="#040405"/>
</g>
<defs>
<clipPath id="clip0_2084_189904">
<rect width="34.2222" height="23.3333" fill="white" transform="translate(10.8889 15.5557)"/>
</clipPath>
</defs>
</svg>
