<svg width="56" height="56" viewBox="0 0 56 56" fill="none" xmlns="http://www.w3.org/2000/svg">
<circle opacity="0.1" cx="28.0001" cy="28.0001" r="23.3333" fill="#1972E6"/>
<path d="M34.2222 14.0001C34.2222 19.1547 30.0435 23.3334 24.8888 23.3334C19.7342 23.3334 15.5555 19.1547 15.5555 14.0001C15.5555 8.84542 19.7342 4.66675 24.8888 4.66675C30.0435 4.66675 34.2222 8.84542 34.2222 14.0001Z" fill="#068DFF"/>
<path d="M27.9999 24.889H21.7777C13.1866 24.889 6.22217 31.8534 6.22217 40.4445C6.22217 42.1627 7.61506 43.5556 9.33328 43.5556H40.4444C42.1626 43.5556 43.5555 42.1627 43.5555 40.4445C43.5555 31.8534 36.591 24.889 27.9999 24.889Z" fill="#068DFF"/>
<path fill-rule="evenodd" clip-rule="evenodd" d="M24.8889 21.389C28.9697 21.389 32.2778 18.0809 32.2778 14.0001C32.2778 9.91931 28.9697 6.61119 24.8889 6.61119C20.8081 6.61119 17.5 9.91931 17.5 14.0001C17.5 18.0809 20.8081 21.389 24.8889 21.389ZM24.8889 23.3334C30.0435 23.3334 34.2222 19.1547 34.2222 14.0001C34.2222 8.84542 30.0435 4.66675 24.8889 4.66675C19.7342 4.66675 15.5556 8.84542 15.5556 14.0001C15.5556 19.1547 19.7342 23.3334 24.8889 23.3334Z" fill="#040405"/>
<path fill-rule="evenodd" clip-rule="evenodd" d="M21.7778 25.8612C13.7236 25.8612 7.19444 32.3904 7.19444 40.4445C7.19444 41.6258 8.15206 42.5834 9.33333 42.5834H40.4444C41.6257 42.5834 42.5833 41.6258 42.5833 40.4445C42.5833 32.3904 36.0541 25.8612 28 25.8612H21.7778ZM5.25 40.4445C5.25 31.3165 12.6497 23.9167 21.7778 23.9167H28C37.128 23.9167 44.5278 31.3165 44.5278 40.4445C44.5278 42.6997 42.6996 44.5279 40.4444 44.5279H9.33333C7.07817 44.5279 5.25 42.6997 5.25 40.4445Z" fill="#040405"/>
<path d="M20.2222 34.2222C20.2222 32.504 21.6151 31.1111 23.3333 31.1111H46.6666C48.3848 31.1111 49.7777 32.504 49.7777 34.2222V37.4305V48.2222C49.7777 49.9404 48.3848 51.3333 46.6666 51.3333H23.3333C21.6151 51.3333 20.2222 49.9404 20.2222 48.2222V37.4305V34.2222Z" fill="white"/>
<path fill-rule="evenodd" clip-rule="evenodd" d="M46.6666 33.0555H23.3333C22.6889 33.0555 22.1666 33.5779 22.1666 34.2222V48.2222C22.1666 48.8665 22.6889 49.3889 23.3333 49.3889H46.6666C47.3109 49.3889 47.8333 48.8665 47.8333 48.2222V34.2222C47.8333 33.5779 47.3109 33.0555 46.6666 33.0555ZM23.3333 31.1111C21.6151 31.1111 20.2222 32.504 20.2222 34.2222V48.2222C20.2222 49.9404 21.6151 51.3333 23.3333 51.3333H46.6666C48.3848 51.3333 49.7777 49.9404 49.7777 48.2222V34.2222C49.7777 32.504 48.3848 31.1111 46.6666 31.1111H23.3333Z" fill="#040405"/>
<path fill-rule="evenodd" clip-rule="evenodd" d="M23.9166 46.6666C23.9166 46.1297 24.3519 45.6944 24.8888 45.6944H26.1409C26.6778 45.6944 27.1131 46.1297 27.1131 46.6666C27.1131 47.2036 26.6778 47.6389 26.1409 47.6389H24.8888C24.3519 47.6389 23.9166 47.2036 23.9166 46.6666Z" fill="#040405"/>
<path fill-rule="evenodd" clip-rule="evenodd" d="M27.6727 46.6666C27.6727 46.1297 28.108 45.6944 28.6449 45.6944H29.897C30.4339 45.6944 30.8692 46.1297 30.8692 46.6666C30.8692 47.2036 30.4339 47.6389 29.897 47.6389H28.6449C28.108 47.6389 27.6727 47.2036 27.6727 46.6666Z" fill="#040405"/>
<path fill-rule="evenodd" clip-rule="evenodd" d="M31.4288 46.6666C31.4288 46.1297 31.8641 45.6944 32.4011 45.6944H33.6531C34.19 45.6944 34.6253 46.1297 34.6253 46.6666C34.6253 47.2036 34.19 47.6389 33.6531 47.6389H32.4011C31.8641 47.6389 31.4288 47.2036 31.4288 46.6666Z" fill="#040405"/>
<path fill-rule="evenodd" clip-rule="evenodd" d="M35.1849 46.6666C35.1849 46.1297 35.6202 45.6944 36.1572 45.6944H37.4092C37.9461 45.6944 38.3814 46.1297 38.3814 46.6666C38.3814 47.2036 37.9461 47.6389 37.4092 47.6389H36.1572C35.6202 47.6389 35.1849 47.2036 35.1849 46.6666Z" fill="#040405"/>
<path fill-rule="evenodd" clip-rule="evenodd" d="M48.2222 41.2222L21.7777 41.2222L21.7777 36.5555L48.2222 36.5555V41.2222Z" fill="#040405"/>
</svg>
