<svg width="56" height="56" viewBox="0 0 56 56" fill="none" xmlns="http://www.w3.org/2000/svg">
<circle opacity="0.1" cx="28.0001" cy="28.0001" r="23.3333" fill="#1972E6"/>
<path d="M22.4131 14.6666C22.4131 13.4393 23.4136 12.4443 24.6478 12.4443H52.2097C53.4439 12.4443 54.4444 13.4393 54.4444 14.6666V30.5925C54.4444 31.8198 53.4439 32.8147 52.2097 32.8147H24.6478C23.4136 32.8147 22.4131 31.8198 22.4131 30.5925V14.6666Z" fill="white"/>
<path fill-rule="evenodd" clip-rule="evenodd" d="M24.6478 13.5554H52.2097C52.8268 13.5554 53.327 14.0529 53.327 14.6666V30.5925C53.327 31.2061 52.8268 31.7036 52.2097 31.7036H24.6478C24.0307 31.7036 23.5305 31.2061 23.5305 30.5925V14.6666C23.5305 14.0529 24.0307 13.5554 24.6478 13.5554ZM22.4131 14.6666C22.4131 13.4393 23.4136 12.4443 24.6478 12.4443H52.2097C53.4439 12.4443 54.4444 13.4393 54.4444 14.6666V30.5925C54.4444 31.8198 53.4439 32.8147 52.2097 32.8147H24.6478C23.4136 32.8147 22.4131 31.8198 22.4131 30.5925V14.6666ZM33.9593 33.9258C33.5479 33.9258 33.2143 34.2575 33.2143 34.6666C33.2143 35.0757 33.5479 35.4073 33.9593 35.4073H42.5258C42.9372 35.4073 43.2707 35.0757 43.2707 34.6666C43.2707 34.2575 42.9372 33.9258 42.5258 33.9258H33.9593Z" fill="#040405" stroke="#040405"/>
<path d="M37 20L37 26L41 23L37 20Z" fill="#068DFF" stroke="#068DFF" stroke-width="2" stroke-linecap="round" stroke-linejoin="round"/>
<path d="M3.04541 19.4813C3.04541 18.254 4.04594 17.259 5.28015 17.259H29.1174C30.3516 17.259 31.3522 18.254 31.3522 19.4813V33.9257C31.3522 35.153 30.3516 36.1479 29.1174 36.1479H5.28015C4.04594 36.1479 3.04541 35.153 3.04541 33.9257V19.4813Z" fill="white"/>
<path fill-rule="evenodd" clip-rule="evenodd" d="M29.1175 18.3701H5.28024C4.66313 18.3701 4.16287 18.8676 4.16287 19.4813V33.9257C4.16287 34.5394 4.66313 35.0368 5.28024 35.0368H29.1175C29.7346 35.0368 30.2349 34.5394 30.2349 33.9257V19.4813C30.2349 18.8676 29.7346 18.3701 29.1175 18.3701ZM5.28024 17.259C4.04602 17.259 3.04549 18.254 3.04549 19.4813V33.9257C3.04549 35.153 4.04602 36.1479 5.28024 36.1479H29.1175C30.3517 36.1479 31.3523 35.153 31.3523 33.9257V19.4813C31.3523 18.254 30.3517 17.259 29.1175 17.259H5.28024ZM1.55566 38.3702C1.55566 37.9611 1.88917 37.6294 2.30058 37.6294H25.0205C25.4319 37.6294 25.7654 37.9611 25.7654 38.3702C25.7654 38.7793 25.4319 39.1109 25.0205 39.1109H2.30058C1.88917 39.1109 1.55566 38.7793 1.55566 38.3702ZM6.9563 20.222C6.44204 20.222 6.02515 20.6365 6.02515 21.1479C6.02515 21.6593 6.44204 22.0739 6.9563 22.0739C7.47055 22.0739 7.88744 21.6593 7.88744 21.1479C7.88744 20.6365 7.47055 20.222 6.9563 20.222ZM9.00481 21.1479C9.00481 20.6365 9.4217 20.222 9.93596 20.222C10.4502 20.222 10.8671 20.6365 10.8671 21.1479C10.8671 21.6593 10.4502 22.0739 9.93596 22.0739C9.4217 22.0739 9.00481 21.6593 9.00481 21.1479ZM12.9156 20.222C12.4014 20.222 11.9845 20.6365 11.9845 21.1479C11.9845 21.6593 12.4014 22.0739 12.9156 22.0739C13.4299 22.0739 13.8468 21.6593 13.8468 21.1479C13.8468 20.6365 13.4299 20.222 12.9156 20.222Z" fill="#040405" stroke="#040405" stroke-width="0.6"/>
<path d="M21.6685 26.5184C21.6685 25.2911 22.669 24.2961 23.9032 24.2961H32.0973C33.3315 24.2961 34.332 25.2911 34.332 26.5184V41.3332C34.332 42.5605 33.3315 43.5554 32.0973 43.5554H23.9032C22.669 43.5554 21.6685 42.5605 21.6685 41.3332V26.5184Z" fill="white"/>
<path d="M22.7859 37.2593H33.2147V41.3334C33.2147 41.947 32.7144 42.4445 32.0973 42.4445H23.9033C23.2862 42.4445 22.7859 41.947 22.7859 41.3334V37.2593Z" fill="#068DFF"/>
<path fill-rule="evenodd" clip-rule="evenodd" d="M23.9032 25.4073H32.0973C32.7144 25.4073 33.2146 25.9047 33.2146 26.5184V36.148H22.7858V26.5184C22.7858 25.9047 23.2861 25.4073 23.9032 25.4073ZM22.7858 37.2591V41.3332C22.7858 41.9468 23.2861 42.4443 23.9032 42.4443H32.0973C32.7144 42.4443 33.2146 41.9468 33.2146 41.3332V37.2591H22.7858ZM21.6685 26.5184C21.6685 25.2911 22.669 24.2961 23.9032 24.2961H32.0973C33.3315 24.2961 34.332 25.2911 34.332 26.5184V41.3332C34.332 42.5605 33.3315 43.5554 32.0973 43.5554H23.9032C22.669 43.5554 21.6685 42.5605 21.6685 41.3332V26.5184ZM26.6966 26.5184C26.3881 26.5184 26.1379 26.7671 26.1379 27.0739C26.1379 27.3807 26.3881 27.6295 26.6966 27.6295H29.3038C29.6124 27.6295 29.8625 27.3807 29.8625 27.0739C29.8625 26.7671 29.6124 26.5184 29.3038 26.5184H26.6966ZM26.8829 39.6665C26.8829 39.1551 27.2997 38.7406 27.814 38.7406C28.3283 38.7406 28.7451 39.1551 28.7451 39.6665C28.7451 40.1779 28.3283 40.5924 27.814 40.5924C27.2997 40.5924 26.8829 40.1779 26.8829 39.6665Z" fill="#040405" stroke="#040405" stroke-width="0.6"/>
</svg>
