<svg width="56" height="56" viewBox="0 0 56 56" fill="none" xmlns="http://www.w3.org/2000/svg">
<circle opacity="0.1" cx="28.0001" cy="28.0001" r="23.3333" fill="#1972E6"/>
<path d="M22.8958 6.3855C23.8048 4.89201 25.9729 4.89201 26.882 6.38551L44.5079 35.3423C45.4544 36.8972 44.3351 38.8889 42.5148 38.8889H7.26301C5.44268 38.8889 4.3234 36.8972 5.26988 35.3423L22.8958 6.3855Z" fill="#068DFF"/>
<path fill-rule="evenodd" clip-rule="evenodd" d="M7.26301 36.9444H42.5148C42.8182 36.9444 43.0047 36.6125 42.847 36.3533L25.2211 7.39651C25.0696 7.1476 24.7082 7.1476 24.5567 7.39651L6.93082 36.3533C6.77307 36.6125 6.95962 36.9444 7.26301 36.9444ZM26.882 6.38551C25.9729 4.89201 23.8048 4.89201 22.8958 6.3855L5.26988 35.3423C4.3234 36.8972 5.44268 38.8889 7.26301 38.8889H42.5148C44.3351 38.8889 45.4544 36.8972 44.5079 35.3423L26.882 6.38551Z" fill="#040405"/>
<path d="M28.0933 17.8428H21.8711L23.081 27.1761H26.8834L28.0933 17.8428Z" fill="white"/>
<path d="M21.8711 30.9737C21.8711 30.1146 22.5675 29.4181 23.4266 29.4181H26.5378C27.3969 29.4181 28.0933 30.1146 28.0933 30.9737V32.5293C28.0933 33.3884 27.3969 34.0848 26.5378 34.0848H23.4266C22.5675 34.0848 21.8711 33.3884 21.8711 32.5293V30.9737Z" fill="white"/>
<path fill-rule="evenodd" clip-rule="evenodd" d="M21.1408 17.2011C21.3254 16.991 21.5915 16.8706 21.8712 16.8706H28.0934C28.373 16.8706 28.6391 16.991 28.8237 17.2011C29.0083 17.4111 29.0935 17.6905 29.0575 17.9678L27.8477 27.3011C27.7848 27.7857 27.3721 28.1484 26.8835 28.1484H23.081C22.5924 28.1484 22.1797 27.7857 22.1169 27.3011L20.907 17.9678C20.8711 17.6905 20.9563 17.4111 21.1408 17.2011ZM22.9775 18.8151L23.9354 26.2039H26.0292L26.987 18.8151H22.9775Z" fill="#040405"/>
<path fill-rule="evenodd" clip-rule="evenodd" d="M23.8156 31.3626V32.1404H26.1489V31.3626H23.8156ZM23.4267 29.4182C22.5676 29.4182 21.8712 30.1146 21.8712 30.9738V32.5293C21.8712 33.3884 22.5676 34.0849 23.4267 34.0849H26.5378C27.3969 34.0849 28.0934 33.3884 28.0934 32.5293V30.9738C28.0934 30.1146 27.3969 29.4182 26.5378 29.4182H23.4267Z" fill="#040405"/>
<path d="M26.0213 45.9995L24.8895 50.0686C24.842 50.2395 24.9161 50.4209 25.0698 50.5096L26.5685 51.375C26.7222 51.4637 26.9163 51.4372 27.0406 51.3105L29.9987 48.2958C30.0655 48.2276 30.105 48.1373 30.1095 48.0419L30.2234 45.6472L37.1856 33.5884C37.3236 33.3493 37.6294 33.2673 37.8686 33.4054L39.242 34.1983C39.9183 34.5888 40.7832 34.3571 41.1737 33.6807C41.5642 33.0043 41.3325 32.1395 40.6561 31.749L40.1488 31.456C39.9893 31.364 39.9347 31.1601 40.0267 31.0007L40.9177 29.4574C40.9664 29.3731 41.0289 29.3 41.1044 29.2387C41.8546 28.6293 46.133 25.091 47.6788 22.4136C50.1538 18.1268 51.3203 15.3718 47.4379 13.1303C43.5555 10.8888 41.9118 13.7357 39.5959 17.747C38.0501 20.4243 37.125 25.8987 36.9724 26.8531C36.957 26.9492 36.925 27.0398 36.8763 27.1241L36.052 28.5519C35.9231 28.7751 35.6377 28.8516 35.4145 28.7227L35.0226 28.4964C34.3462 28.1059 33.4813 28.3377 33.0908 29.0141C32.7003 29.6904 32.9321 30.5553 33.6084 30.9458L34.8086 31.6387C35.1434 31.832 35.2581 32.2601 35.0648 32.595L28.2027 44.4805L26.1858 45.7765C26.1054 45.8281 26.0469 45.9075 26.0213 45.9995Z" fill="white"/>
<path fill-rule="evenodd" clip-rule="evenodd" d="M26.6633 50.307L29.1491 47.7737L29.2636 45.3654L36.3437 33.1024C36.7503 32.3982 37.6507 32.1569 38.3548 32.5635L39.7282 33.3564C39.9396 33.4784 40.2098 33.406 40.3319 33.1947C40.4539 32.9833 40.3815 32.713 40.1701 32.591L39.6628 32.2981C39.0383 31.9375 38.8244 31.1391 39.1849 30.5146L40.0759 28.9714C40.1842 28.7838 40.3244 28.6199 40.4916 28.4841C40.8565 28.1877 42.0916 27.1689 43.422 25.8986C44.7731 24.6084 46.1392 23.1361 46.8369 21.9276C48.0989 19.7418 48.8774 18.1757 48.9731 16.9305C49.0171 16.3579 48.9115 15.8804 48.6358 15.4367C48.3492 14.9755 47.836 14.4828 46.9519 13.9723C46.0781 13.4678 45.4231 13.3042 44.9194 13.314C44.434 13.3235 43.9911 13.4957 43.5307 13.858C43.0528 14.234 42.5749 14.8011 42.0567 15.5643C41.5401 16.3252 41.0217 17.2221 40.438 18.2331C39.7402 19.4417 39.1483 21.3609 38.7065 23.1761C38.2715 24.9634 38.0068 26.5423 37.9325 27.0066C37.8985 27.2193 37.8267 27.4227 37.7184 27.6103L36.894 29.0381C36.4967 29.7263 35.6167 29.9621 34.9285 29.5647L34.5366 29.3385C34.3252 29.2164 34.0549 29.2889 33.9329 29.5002C33.8109 29.7116 33.8833 29.9819 34.0947 30.1039L35.2949 30.7968C36.0947 31.2586 36.3687 32.2813 35.9069 33.0811L28.9269 45.171L26.8985 46.4743L25.9474 49.8937L26.6633 50.307ZM27.7346 51.9915C27.2998 52.4347 26.6202 52.5274 26.0825 52.217L24.5838 51.3517C24.0461 51.0412 23.7866 50.4063 23.953 49.8082L25.0848 45.739C25.1743 45.4171 25.3792 45.1393 25.6603 44.9586L27.4788 43.7901L34.0869 32.3446L33.1224 31.7878C31.9811 31.1289 31.59 29.6694 32.249 28.528C32.8991 27.402 34.3283 27.0062 35.4626 27.6285L36.0177 26.667C36.1025 26.1402 36.3746 24.5348 36.8172 22.7163C37.2625 20.8864 37.906 18.7297 38.754 17.2609L38.7659 17.2404C39.3359 16.2531 39.8876 15.2975 40.448 14.4721C41.0106 13.6434 41.6206 12.8868 42.3284 12.3298C43.0537 11.7591 43.8944 11.3892 44.8815 11.3699C45.8504 11.351 46.8567 11.6721 47.9241 12.2884C48.9812 12.8987 49.7781 13.5909 50.2874 14.4106C50.8076 15.2478 50.9835 16.1473 50.9118 17.0796C50.7762 18.844 49.7339 20.7988 48.5209 22.8998C47.6729 24.3686 46.1269 26.0042 44.7648 27.3048C43.4112 28.5974 42.1569 29.6357 41.7431 29.9725L41.188 30.9341C42.2941 31.6052 42.6659 33.0409 42.0158 34.1669C41.3568 35.3083 39.8974 35.6993 38.756 35.0404L37.7915 34.4835L31.1835 45.929L31.0808 48.0882C31.0649 48.422 30.9268 48.7382 30.6927 48.9768L27.7346 51.9915L27.0419 51.3118L27.7346 51.9915Z" fill="#040405"/>
<path fill-rule="evenodd" clip-rule="evenodd" d="M43.4023 23.5986C42.9373 23.3301 42.778 22.7355 43.0465 22.2705L46.1576 16.8819C46.4261 16.4169 47.0207 16.2576 47.4857 16.5261C47.9507 16.7945 48.11 17.3891 47.8415 17.8542L44.7304 23.2428C44.4619 23.7078 43.8673 23.8671 43.4023 23.5986Z" fill="#040405"/>
<path fill-rule="evenodd" clip-rule="evenodd" d="M40.7082 22.0431C40.2432 21.7746 40.0839 21.18 40.3524 20.715L43.4635 15.3264C43.7319 14.8614 44.3265 14.702 44.7915 14.9705C45.2565 15.239 45.4159 15.8336 45.1474 16.2986L42.0363 21.6872C41.7678 22.1522 41.1732 22.3115 40.7082 22.0431Z" fill="#040405"/>
</svg>
