<svg width="56" height="56" viewBox="0 0 56 56" fill="none" xmlns="http://www.w3.org/2000/svg">
<circle opacity="0.1" cx="28.0001" cy="28.0001" r="23.3333" fill="#1972E6"/>
<path d="M7.40918 13.3612C7.40918 11.7426 8.72872 10.4304 10.3564 10.4304H41.794C43.4217 10.4304 44.7413 11.7426 44.7413 13.3612V32.4111C44.7413 34.0297 43.4217 35.3419 41.794 35.3419H10.3564C8.72872 35.3419 7.40918 34.0297 7.40918 32.4111V13.3612Z" fill="white" stroke="black" stroke-width="0.6"/>
<path fill-rule="evenodd" clip-rule="evenodd" d="M41.794 11.8958H10.3565C9.54259 11.8958 8.88282 12.5519 8.88282 13.3612V32.4111C8.88282 33.2204 9.54259 33.8765 10.3565 33.8765H41.794C42.6079 33.8765 43.2676 33.2204 43.2676 32.4111V13.3612C43.2676 12.5519 42.6079 11.8958 41.794 11.8958ZM10.3565 10.4304C8.72872 10.4304 7.40918 11.7426 7.40918 13.3612V32.4111C7.40918 34.0297 8.72872 35.3419 10.3565 35.3419H41.794C43.4217 35.3419 44.7413 34.0297 44.7413 32.4111V13.3612C44.7413 11.7426 43.4217 10.4304 41.794 10.4304H10.3565ZM5.44434 38.2726C5.44434 37.7331 5.88418 37.2957 6.42676 37.2957H36.3907C36.9333 37.2957 37.3731 37.7331 37.3731 38.2726C37.3731 38.8121 36.9333 39.2495 36.3907 39.2495H6.42676C5.88418 39.2495 5.44434 38.8121 5.44434 38.2726ZM12.5669 14.3381C11.8887 14.3381 11.3389 14.8848 11.3389 15.5592C11.3389 16.2337 11.8887 16.7804 12.5669 16.7804C13.2451 16.7804 13.7949 16.2337 13.7949 15.5592C13.7949 14.8848 13.2451 14.3381 12.5669 14.3381ZM15.2686 15.5592C15.2686 14.8848 15.8184 14.3381 16.4966 14.3381C17.1748 14.3381 17.7246 14.8848 17.7246 15.5592C17.7246 16.2337 17.1748 16.7804 16.4966 16.7804C15.8184 16.7804 15.2686 16.2337 15.2686 15.5592ZM20.4263 14.3381C19.7481 14.3381 19.1983 14.8848 19.1983 15.5592C19.1983 16.2337 19.7481 16.7804 20.4263 16.7804C21.1045 16.7804 21.6543 16.2337 21.6543 15.5592C21.6543 14.8848 21.1045 14.3381 20.4263 14.3381Z" fill="#040405" stroke="#040405" stroke-width="0.6"/>
<path d="M31.9702 22.6419C31.9702 21.0233 33.2898 19.7112 34.9175 19.7112H45.7241C47.3519 19.7112 48.6714 21.0233 48.6714 22.6419V42.1803C48.6714 43.7989 47.3519 45.1111 45.7241 45.1111H34.9175C33.2898 45.1111 31.9702 43.7989 31.9702 42.1803V22.6419Z" fill="white" stroke="black" stroke-width="0.6"/>
<path d="M33.4436 36.8074H47.1975V42.1804C47.1975 42.9897 46.5378 43.6458 45.7239 43.6458H34.9172C34.1034 43.6458 33.4436 42.9897 33.4436 42.1804V36.8074Z" fill="#068DFF" stroke="black" stroke-width="0.6"/>
<path fill-rule="evenodd" clip-rule="evenodd" d="M34.9175 21.1766H45.7241C46.538 21.1766 47.1978 21.8326 47.1978 22.6419V35.3419H33.4438V22.6419C33.4438 21.8326 34.1036 21.1766 34.9175 21.1766ZM33.4438 36.8073V42.1803C33.4438 42.9896 34.1036 43.6457 34.9175 43.6457H45.7241C46.538 43.6457 47.1978 42.9896 47.1978 42.1803V36.8073H33.4438ZM31.9702 22.6419C31.9702 21.0233 33.2898 19.7112 34.9175 19.7112H45.7241C47.3519 19.7112 48.6714 21.0233 48.6714 22.6419V42.1803C48.6714 43.7989 47.3519 45.1111 45.7241 45.1111H34.9175C33.2898 45.1111 31.9702 43.7989 31.9702 42.1803V22.6419ZM38.6016 22.6419C38.1946 22.6419 37.8648 22.97 37.8648 23.3746C37.8648 23.7793 38.1946 24.1073 38.6016 24.1073H42.0401C42.447 24.1073 42.7769 23.7793 42.7769 23.3746C42.7769 22.97 42.447 22.6419 42.0401 22.6419H38.6016ZM38.8472 39.9823C38.8472 39.3078 39.397 38.7611 40.0752 38.7611C40.7534 38.7611 41.3032 39.3078 41.3032 39.9823C41.3032 40.6567 40.7534 41.2034 40.0752 41.2034C39.397 41.2034 38.8472 40.6567 38.8472 39.9823Z" fill="#040405" stroke="#040405" stroke-width="0.6"/>
<path d="M26.0408 8.06675C26.0408 6.18898 27.563 4.66675 29.4408 4.66675H36.8962C38.774 4.66675 40.2962 6.18898 40.2962 8.06675V12.0812C40.2962 13.959 38.774 15.4812 36.8962 15.4812H28.8919L26.0408 18.1849V8.06675Z" fill="#068DFF"/>
<path fill-rule="evenodd" clip-rule="evenodd" d="M32.9944 10.7665C32.7064 10.7665 32.4729 10.545 32.4729 10.2719V7.63421C32.4729 7.36107 32.7064 7.13965 32.9944 7.13965C33.2825 7.13965 33.516 7.36107 33.516 7.63421L33.516 10.2719C33.516 10.545 33.2825 10.7665 32.9944 10.7665ZM32.473 12.0853C32.473 11.8122 32.7065 11.5907 32.9945 11.5907C33.2826 11.5907 33.5161 11.8122 33.5161 12.0853C33.5161 12.3584 33.2826 12.5799 32.9945 12.5799C32.7065 12.5799 32.473 12.3584 32.473 12.0853Z" fill="#040405" stroke="#040405" stroke-width="0.6"/>
</svg>
