<svg xmlns="http://www.w3.org/2000/svg" width="64" height="64" viewBox="0 0 64 64" fill="none">
<path d="M40.7601 18.3108H9.09472C6.72281 18.3108 4.79999 20.1912 4.79999 22.5109V51.4798C4.79999 53.7995 6.72281 55.6799 9.09472 55.6799H54.9052C57.2772 55.6799 59.2 53.7995 59.2 51.4798V22.9287L55.3347 33.3145V51.4798C55.3347 51.7118 55.1424 51.8998 54.9052 51.8998H9.09472C8.85753 51.8998 8.66525 51.7118 8.66525 51.4798V22.5109C8.66525 22.279 8.85753 22.0909 9.09472 22.0909H39.3532L40.7601 18.3108Z" fill="black"/>
<path d="M35.9795 31.156H26.568H17.1566C16.2473 31.156 15.5103 31.8768 15.5103 32.766C15.5103 33.6552 16.2473 34.3761 17.1566 34.3761H34.9492C35.0683 33.7564 35.2392 33.145 35.4613 32.5483L35.9795 31.156Z" fill="#068DFF"/>
<path d="M15.5103 41.2247C15.5103 40.3355 16.2473 39.6146 17.1566 39.6146H29.597C30.5062 39.6146 31.2433 40.3355 31.2433 41.2247C31.2433 42.1139 30.5062 42.8348 29.597 42.8348H17.1566C16.2473 42.8348 15.5103 42.1139 15.5103 41.2247Z" fill="#068DFF"/>
<path fill-rule="evenodd" clip-rule="evenodd" d="M54.421 8.68601C51.2144 7.54459 47.6688 9.16153 46.5016 12.2976L38.544 33.6793C38.0481 35.0118 37.9051 36.4455 38.1285 37.8466L39.2799 45.0679C39.4883 46.3753 41.0885 46.9448 42.1074 46.0744L47.7356 41.2662C48.8276 40.3334 49.6604 39.1453 50.1563 37.8128L58.1139 16.431C59.2811 13.295 57.6277 9.82744 54.421 8.68601ZM41.9377 33.9747C41.6319 34.7965 41.5437 35.6805 41.6815 36.5446L42.0138 38.6288L44.2447 39.4229L45.8691 38.0352C46.5425 37.4599 47.056 36.7273 47.3619 35.9056L41.9377 33.9747ZM53.5945 10.906C55.0923 11.4392 55.8646 13.0589 55.3194 14.5238L54.9502 15.5159L49.526 13.5851L49.8953 12.593C50.4404 11.1281 52.0966 10.3728 53.5945 10.906Z" fill="black"/>
</svg>