<svg xmlns="http://www.w3.org/2000/svg" width="64" height="64" viewBox="0 0 64 64" fill="none">
<path fill-rule="evenodd" clip-rule="evenodd" d="M32 15.3602C27.8724 15.3602 23.9988 16.3581 21.8008 18.0848C21.077 18.6534 20.0292 18.5276 19.4606 17.8038C18.892 17.0799 19.0178 16.0322 19.7416 15.4636C22.7724 13.0827 27.5132 12.0269 32 12.0269C36.4868 12.0269 41.2276 13.0827 44.2583 15.4636C44.9821 16.0322 45.108 17.0799 44.5393 17.8038C43.9707 18.5276 42.923 18.6534 42.1991 18.0848C40.0011 16.3581 36.1276 15.3602 32 15.3602Z" fill="#068DFF"/>
<path fill-rule="evenodd" clip-rule="evenodd" d="M12.3334 23.9999V19.2214C12.6776 18.4816 13.8919 16.2185 16.6805 14.0875C19.6143 11.8456 24.3979 9.66658 32 9.66658C39.6021 9.66658 44.3857 11.8456 47.3196 14.0875C50.1082 16.2185 51.3224 18.4816 51.6667 19.2214V23.9999C51.6667 24.9204 52.4129 25.6666 53.3334 25.6666C54.2538 25.6666 55 24.9204 55 23.9999V19.1173C55 18.7781 54.9448 18.3917 54.7707 17.9959C54.3587 17.0592 52.8694 14.1333 49.3435 11.439C45.7951 8.72748 40.2906 6.33325 32 6.33325C23.7095 6.33325 18.2049 8.72748 14.6566 11.439C11.1306 14.1333 9.64133 17.0592 9.22934 17.9959C9.05525 18.3917 9.00002 18.7781 9.00002 19.1173V23.9999C9.00002 24.9204 9.74621 25.6666 10.6667 25.6666C11.5872 25.6666 12.3334 24.9204 12.3334 23.9999ZM54.6958 40.9999C54.9134 39.846 55.8366 38.9413 57 38.7511V34.0475L56.7003 34.0475C55.5896 34.0475 54.6465 33.33 54.3091 32.3333H52.3334V40.9999H54.6958ZM57.9381 42.0125C57.7067 43.3311 56.5558 44.3333 55.1709 44.3333H55V48.9561L44.662 54.9999H40.315C40.1492 56.4999 38.8775 57.6666 37.3334 57.6666H29.3334C27.6765 57.6666 26.3334 56.3234 26.3334 54.6666V51.9999C26.3334 50.3431 27.6765 48.9999 29.3334 48.9999H37.3334C38.8775 48.9999 40.1492 50.1666 40.315 51.6666H43.7591L51.6667 47.0437V44.3149C50.1667 44.1491 49 42.8774 49 41.3333L49 31.9999C49 30.3431 50.3432 28.9999 52 28.9999L54.986 28.9999C56.0967 28.9999 57.0399 29.7174 57.3772 30.7142H57.5238C59.0755 30.7142 60.3334 31.9721 60.3334 33.5237V39.2044C60.3334 40.6222 59.2955 41.7977 57.9381 42.0125ZM9.30422 32.3333C9.08662 33.4872 8.16343 34.3919 7.00002 34.5821V39.2856H7.29974C8.41045 39.2856 9.35358 40.0031 9.69092 40.9999H11.6667V32.3333H9.30422ZM6.06199 31.3207C6.2933 30.002 7.4442 28.9999 8.82915 28.9999H12C13.6569 28.9999 15 30.3431 15 31.9999V41.3333C15 42.9901 13.6569 44.3333 12 44.3333H9.01402C7.90332 44.3333 6.96019 43.6158 6.62284 42.619H6.47621C4.92455 42.619 3.66669 41.3611 3.66669 39.8094V34.1288C3.66669 32.7109 4.70454 31.5355 6.06199 31.3207ZM29.6667 54.3333V52.3333H37V54.3333H29.6667Z" fill="#272C35"/>
</svg>